<svg xmlns="http://www.w3.org/2000/svg" width="1305.6" height="1064.79" viewBox="0 0 1305.6 1064.79">
  <defs>
    <style>
      .cls-1 {
        fill: #f5aa00;
      }

      .cls-1, .cls-3 {
        fill-rule: evenodd;
      }

      .cls-2 {
        fill: #fff;
      }

      .cls-3 {
        fill: #0d86c8;
      }
    </style>
  </defs>
  <title>Asset 2</title>
  <g id="Layer_2" data-name="Layer 2">
    <g id="GJUChat_Logo" data-name="GJUChat Logo">
      <g id="Orange_ChatBox" data-name="Orange ChatBox">
        <g>
          <polygon class="cls-1" points="1224.4 0 240 0 240 532.04 1224.4 532.04 1224.4 133.01 1305.6 0 1224.4 0"/>
          <rect class="cls-2" x="652.2" y="186.02" width="160" height="160"/>
          <rect class="cls-2" x="452.2" y="186.02" width="160" height="160"/>
          <rect class="cls-2" x="852.2" y="186.02" width="160" height="160"/>
        </g>
      </g>
      <g id="Blue_ChatBox" data-name="Blue ChatBox">
        <g>
          <polygon class="cls-3" points="81.2 532.75 81.2 931.77 0 1064.79 81.2 1064.79 1065.6 1064.79 1065.6 532.75 81.2 532.75"/>
          <rect class="cls-2" x="493.4" y="718.77" width="160" height="160" transform="translate(1146.8 1597.53) rotate(180)"/>
          <rect class="cls-2" x="693.4" y="718.77" width="160" height="160" transform="translate(1546.8 1597.53) rotate(180)"/>
          <rect class="cls-2" x="293.4" y="718.77" width="160" height="160" transform="translate(746.8 1597.53) rotate(180)"/>
        </g>
      </g>
    </g>
  </g>
</svg>
